{
	"asset":{
		"generator":"Khronos glTF Blender I/O v4.0.44",
		"version":"2.0"
	},
	"extensionsUsed":[
		"KHR_lights_punctual"
	],
	"extensionsRequired":[
		"KHR_lights_punctual"
	],
	"extensions":{
		"KHR_lights_punctual":{
			"lights":[
				{
					"color":[
						0.9871233105659485,
						1,
						0.9743437170982361
					],
					"intensity":5435.141306588225,
					"type":"point",
					"name":"Point"
				},
				{
					"color":[
						1,
						0.026383938267827034,
						0
					],
					"intensity":5435.141306588225,
					"type":"point",
					"name":"Point.001"
				},
				{
					"color":[
						0.00038004666566848755,
						1,
						0
					],
					"intensity":5435.141306588225,
					"type":"point",
					"name":"Point.002"
				}
			]
		}
	},
	"scene":0,
	"scenes":[
		{
			"name":"Scene",
			"nodes":[
				0,
				1,
				2,
				3,
				4,
				5,
				6,
				7,
				8,
				9,
				10
			]
		}
	],
	"nodes":[
		{
			"camera":0,
			"name":"Camera",
			"rotation":[
				-0.20997299253940582,
				0.3857799470424652,
				0.09062844514846802,
				0.8937962055206299
			],
			"translation":[
				2,
				2,
				-2
			]
		},
		{
			"extensions":{
				"KHR_lights_punctual":{
					"light":0
				}
			},
			"name":"Point",
			"rotation":[
				-0.7071068286895752,
				0,
				0,
				0.7071068286895752
			],
			"translation":[
				-0.9038103818893433,
				1.072631597518921,
				0.7445715665817261
			]
		},
		{
			"extensions":{
				"KHR_lights_punctual":{
					"light":1
				}
			},
			"name":"Point.001",
			"rotation":[
				-0.7071068286895752,
				0,
				0,
				0.7071068286895752
			],
			"translation":[
				0.48540806770324707,
				0.48405811190605164,
				1.0430402755737305
			]
		},
		{
			"extensions":{
				"KHR_lights_punctual":{
					"light":2
				}
			},
			"name":"Point.002",
			"rotation":[
				-0.7071068286895752,
				0,
				0,
				0.7071068286895752
			],
			"translation":[
				0.9349281191825867,
				0.8416975736618042,
				-0.8028502464294434
			]
		},
		{
			"mesh":0,
			"name":"Cube.003",
			"scale":[
				0.2293855994939804,
				0.2293855994939804,
				0.2293855994939804
			],
			"translation":[
				-0.8451707363128662,
				0,
				0.0054399073123931885
			]
		},
		{
			"mesh":1,
			"name":"Suzanne",
			"rotation":[
				-0.29345259070396423,
				0.2692984640598297,
				0.07486395537853241,
				0.9141986966133118
			],
			"scale":[
				0.3840046525001526,
				0.3840046525001526,
				0.3840046226978302
			],
			"translation":[
				0.07943481206893921,
				0.08534550666809082,
				0.1336771547794342
			]
		},
		{
			"mesh":2,
			"name":"Plane",
			"scale":[
				1.8803504705429077,
				1.8803504705429077,
				1.8803504705429077
			],
			"translation":[
				0,
				-0.3701624870300293,
				0
			]
		},
		{
			"mesh":3,
			"name":"Icosphere",
			"scale":[
				0.2829701900482178,
				0.2829701900482178,
				0.2829701900482178
			],
			"translation":[
				0.866856038570404,
				0,
				0
			]
		},
		{
			"mesh":4,
			"name":"Cone",
			"rotation":[
				-0.2700423002243042,
				0.06330405175685883,
				0.13709914684295654,
				0.950933039188385
			],
			"scale":[
				0.22968868911266327,
				0.22968865931034088,
				0.22968867421150208
			],
			"translation":[
				-0.07777214050292969,
				0.5009170174598694,
				-0.16454744338989258
			]
		},
		{
			"mesh":5,
			"name":"Torus",
			"rotation":[
				-0.14437995851039886,
				-0.10330412536859512,
				-0.19299666583538055,
				0.9650051593780518
			],
			"scale":[
				0.2139691859483719,
				0.2139691859483719,
				0.21396920084953308
			],
			"translation":[
				0.25492823123931885,
				0,
				0.8912200927734375
			]
		},
		{
			"mesh":6,
			"name":"Cylinder",
			"rotation":[
				-0.17061543464660645,
				-0.1532215029001236,
				-0.27733129262924194,
				0.9330064058303833
			],
			"scale":[
				0.2515091300010681,
				0.2515091300010681,
				0.2515091300010681
			],
			"translation":[
				0,
				0,
				-0.8564535975456238
			]
		}
	],
	"cameras":[
		{
			"name":"Camera",
			"perspective":{
				"aspectRatio":1.7777777777777777,
				"yfov":0.39959652046304894,
				"zfar":100,
				"znear":0.10000000149011612
			},
			"type":"perspective"
		}
	],
	"materials":[
		{
			"doubleSided":true,
			"name":"Material.002",
			"pbrMetallicRoughness":{
				"baseColorFactor":[
					0.7999992966651917,
					0.6415790319442749,
					0,
					1
				],
				"metallicFactor":0,
				"roughnessFactor":0.5
			}
		},
		{
			"doubleSided":true,
			"name":"Material.003",
			"pbrMetallicRoughness":{
				"baseColorFactor":[
					0,
					0.3520408570766449,
					0.7999992966651917,
					1
				],
				"metallicFactor":0,
				"roughnessFactor":0.5
			}
		},
		{
			"doubleSided":true,
			"name":"Material.004",
			"pbrMetallicRoughness":{
				"baseColorFactor":[
					0.800000011920929,
					0.800000011920929,
					0.800000011920929,
					1
				],
				"metallicFactor":0,
				"roughnessFactor":0.5
			}
		},
		{
			"doubleSided":true,
			"name":"Material.001",
			"pbrMetallicRoughness":{
				"baseColorFactor":[
					0.7999998927116394,
					0.10149765759706497,
					0.7756885886192322,
					1
				],
				"metallicFactor":0,
				"roughnessFactor":0.5
			}
		},
		{
			"doubleSided":true,
			"name":"Material",
			"pbrMetallicRoughness":{
				"metallicFactor":0,
				"roughnessFactor":0
			}
		}
	],
	"meshes":[
		{
			"name":"Cube.003",
			"primitives":[
				{
					"attributes":{
						"POSITION":0,
						"NORMAL":1,
						"TEXCOORD_0":2
					},
					"indices":3,
					"material":0
				}
			]
		},
		{
			"name":"Suzanne",
			"primitives":[
				{
					"attributes":{
						"POSITION":4,
						"NORMAL":5,
						"TEXCOORD_0":6
					},
					"indices":7,
					"material":1
				}
			]
		},
		{
			"name":"Plane",
			"primitives":[
				{
					"attributes":{
						"POSITION":8,
						"NORMAL":9,
						"TEXCOORD_0":10
					},
					"indices":11,
					"material":2
				}
			]
		},
		{
			"name":"Icosphere",
			"primitives":[
				{
					"attributes":{
						"POSITION":12,
						"NORMAL":13,
						"TEXCOORD_0":14
					},
					"indices":15,
					"material":0
				}
			]
		},
		{
			"name":"Cone",
			"primitives":[
				{
					"attributes":{
						"POSITION":16,
						"NORMAL":17,
						"TEXCOORD_0":18
					},
					"indices":19,
					"material":0
				}
			]
		},
		{
			"name":"Torus",
			"primitives":[
				{
					"attributes":{
						"POSITION":20,
						"NORMAL":21,
						"TEXCOORD_0":22
					},
					"indices":23,
					"material":3
				}
			]
		},
		{
			"name":"Cylinder",
			"primitives":[
				{
					"attributes":{
						"POSITION":24,
						"NORMAL":25,
						"TEXCOORD_0":26
					},
					"indices":27,
					"material":4
				}
			]
		}
	],
	"accessors":[
		{
			"bufferView":0,
			"componentType":5126,
			"count":24,
			"max":[
				1,
				1,
				1
			],
			"min":[
				-1,
				-1,
				-1
			],
			"type":"VEC3"
		},
		{
			"bufferView":1,
			"componentType":5126,
			"count":24,
			"type":"VEC3"
		},
		{
			"bufferView":2,
			"componentType":5126,
			"count":24,
			"type":"VEC2"
		},
		{
			"bufferView":3,
			"componentType":5123,
			"count":36,
			"type":"SCALAR"
		},
		{
			"bufferView":4,
			"componentType":5126,
			"count":7872,
			"max":[
				1.325934886932373,
				0.9392362236976624,
				0.8223199844360352
			],
			"min":[
				-1.325934886932373,
				-0.9704862236976624,
				-0.7782661318778992
			],
			"type":"VEC3"
		},
		{
			"bufferView":5,
			"componentType":5126,
			"count":7872,
			"type":"VEC3"
		},
		{
			"bufferView":6,
			"componentType":5126,
			"count":7872,
			"type":"VEC2"
		},
		{
			"bufferView":7,
			"componentType":5123,
			"count":11808,
			"type":"SCALAR"
		},
		{
			"bufferView":8,
			"componentType":5126,
			"count":4,
			"max":[
				1,
				0,
				1
			],
			"min":[
				-1,
				0,
				-1
			],
			"type":"VEC3"
		},
		{
			"bufferView":9,
			"componentType":5126,
			"count":4,
			"type":"VEC3"
		},
		{
			"bufferView":10,
			"componentType":5126,
			"count":4,
			"type":"VEC2"
		},
		{
			"bufferView":11,
			"componentType":5123,
			"count":6,
			"type":"SCALAR"
		},
		{
			"bufferView":12,
			"componentType":5126,
			"count":240,
			"max":[
				0.9510578513145447,
				1,
				0.9999999403953552
			],
			"min":[
				-0.9510578513145447,
				-1,
				-0.9999999403953552
			],
			"type":"VEC3"
		},
		{
			"bufferView":13,
			"componentType":5126,
			"count":240,
			"type":"VEC3"
		},
		{
			"bufferView":14,
			"componentType":5126,
			"count":240,
			"type":"VEC2"
		},
		{
			"bufferView":15,
			"componentType":5123,
			"count":240,
			"type":"SCALAR"
		},
		{
			"bufferView":16,
			"componentType":5126,
			"count":128,
			"max":[
				1,
				1,
				1
			],
			"min":[
				-1,
				-1,
				-1
			],
			"type":"VEC3"
		},
		{
			"bufferView":17,
			"componentType":5126,
			"count":128,
			"type":"VEC3"
		},
		{
			"bufferView":18,
			"componentType":5126,
			"count":128,
			"type":"VEC2"
		},
		{
			"bufferView":19,
			"componentType":5123,
			"count":186,
			"type":"SCALAR"
		},
		{
			"bufferView":20,
			"componentType":5126,
			"count":2304,
			"max":[
				1.25,
				0.25,
				1.25
			],
			"min":[
				-1.25,
				-0.25,
				-1.25
			],
			"type":"VEC3"
		},
		{
			"bufferView":21,
			"componentType":5126,
			"count":2304,
			"type":"VEC3"
		},
		{
			"bufferView":22,
			"componentType":5126,
			"count":2304,
			"type":"VEC2"
		},
		{
			"bufferView":23,
			"componentType":5123,
			"count":3456,
			"type":"SCALAR"
		},
		{
			"bufferView":24,
			"componentType":5126,
			"count":192,
			"max":[
				1,
				1,
				1
			],
			"min":[
				-1,
				-1,
				-1
			],
			"type":"VEC3"
		},
		{
			"bufferView":25,
			"componentType":5126,
			"count":192,
			"type":"VEC3"
		},
		{
			"bufferView":26,
			"componentType":5126,
			"count":192,
			"type":"VEC2"
		},
		{
			"bufferView":27,
			"componentType":5123,
			"count":372,
			"type":"SCALAR"
		}
	],
	"bufferViews":[
		{
			"buffer":0,
			"byteLength":288,
			"byteOffset":0,
			"target":34962
		},
		{
			"buffer":0,
			"byteLength":288,
			"byteOffset":288,
			"target":34962
		},
		{
			"buffer":0,
			"byteLength":192,
			"byteOffset":576,
			"target":34962
		},
		{
			"buffer":0,
			"byteLength":72,
			"byteOffset":768,
			"target":34963
		},
		{
			"buffer":0,
			"byteLength":94464,
			"byteOffset":840,
			"target":34962
		},
		{
			"buffer":0,
			"byteLength":94464,
			"byteOffset":95304,
			"target":34962
		},
		{
			"buffer":0,
			"byteLength":62976,
			"byteOffset":189768,
			"target":34962
		},
		{
			"buffer":0,
			"byteLength":23616,
			"byteOffset":252744,
			"target":34963
		},
		{
			"buffer":0,
			"byteLength":48,
			"byteOffset":276360,
			"target":34962
		},
		{
			"buffer":0,
			"byteLength":48,
			"byteOffset":276408,
			"target":34962
		},
		{
			"buffer":0,
			"byteLength":32,
			"byteOffset":276456,
			"target":34962
		},
		{
			"buffer":0,
			"byteLength":12,
			"byteOffset":276488,
			"target":34963
		},
		{
			"buffer":0,
			"byteLength":2880,
			"byteOffset":276500,
			"target":34962
		},
		{
			"buffer":0,
			"byteLength":2880,
			"byteOffset":279380,
			"target":34962
		},
		{
			"buffer":0,
			"byteLength":1920,
			"byteOffset":282260,
			"target":34962
		},
		{
			"buffer":0,
			"byteLength":480,
			"byteOffset":284180,
			"target":34963
		},
		{
			"buffer":0,
			"byteLength":1536,
			"byteOffset":284660,
			"target":34962
		},
		{
			"buffer":0,
			"byteLength":1536,
			"byteOffset":286196,
			"target":34962
		},
		{
			"buffer":0,
			"byteLength":1024,
			"byteOffset":287732,
			"target":34962
		},
		{
			"buffer":0,
			"byteLength":372,
			"byteOffset":288756,
			"target":34963
		},
		{
			"buffer":0,
			"byteLength":27648,
			"byteOffset":289128,
			"target":34962
		},
		{
			"buffer":0,
			"byteLength":27648,
			"byteOffset":316776,
			"target":34962
		},
		{
			"buffer":0,
			"byteLength":18432,
			"byteOffset":344424,
			"target":34962
		},
		{
			"buffer":0,
			"byteLength":6912,
			"byteOffset":362856,
			"target":34963
		},
		{
			"buffer":0,
			"byteLength":2304,
			"byteOffset":369768,
			"target":34962
		},
		{
			"buffer":0,
			"byteLength":2304,
			"byteOffset":372072,
			"target":34962
		},
		{
			"buffer":0,
			"byteLength":1536,
			"byteOffset":374376,
			"target":34962
		},
		{
			"buffer":0,
			"byteLength":744,
			"byteOffset":375912,
			"target":34963
		}
	],
	"buffers":[
		{
			"byteLength":376656,
			"uri":"light2.bin"
		}
	]
}
