{
	"asset":{
		"generator":"Khronos glTF Blender I/O v4.0.44",
		"version":"2.0"
	},
	"extensionsUsed":[
		"KHR_lights_punctual"
	],
	"extensionsRequired":[
		"KHR_lights_punctual"
	],
	"extensions":{
		"KHR_lights_punctual":{
			"lights":[
				{
					"color":[
						0.003990964498370886,
						0.04769274964928627,
						1
					],
					"intensity":815.2711959882339,
					"type":"point",
					"name":"Point"
				},
				{
					"color":[
						1,
						0.026383938267827034,
						0
					],
					"intensity":1630.5423919764678,
					"type":"point",
					"name":"Point.001"
				},
				{
					"color":[
						0.21404114365577698,
						1,
						0
					],
					"intensity":543.5141306588226,
					"type":"point",
					"name":"Point.002"
				},
				{
					"color":[
						1,
						0,
						0.07930958271026611
					],
					"intensity":1087.0282613176453,
					"type":"point",
					"name":"Point.003"
				},
				{
					"color":[
						0.9850689172744751,
						0,
						1
					],
					"intensity":1358.7853266470563,
					"type":"point",
					"name":"Point.004"
				},
				{
					"color":[
						0,
						0.9207413792610168,
						1
					],
					"intensity":271.7570653294113,
					"type":"point",
					"name":"Point.006"
				},
				{
					"color":[
						1,
						1,
						1
					],
					"intensity":136.60000203549862,
					"type":"directional",
					"name":"Sun"
				},
				{
					"color":[
						0.13348978757858276,
						1,
						0
					],
					"intensity":1630.5423919764678,
					"type":"point",
					"name":"Point.007"
				}
			]
		}
	},
	"scene":0,
	"scenes":[
		{
			"name":"Scene",
			"nodes":[
				0,
				1,
				2,
				3,
				4,
				5,
				6,
				7,
				8,
				9,
				10,
				11,
				12,
				13,
				14,
				15
			]
		}
	],
	"nodes":[
		{
			"camera":0,
			"name":"Camera",
			"rotation":[
				-0.20997296273708344,
				0.3857799470424652,
				0.09062844514846802,
				0.8937962055206299
			],
			"scale":[
				4.619826793670654,
				4.619826316833496,
				4.619825839996338
			],
			"translation":[
				9.87501335144043,
				10.937023162841797,
				-8.935270309448242
			]
		},
		{
			"extensions":{
				"KHR_lights_punctual":{
					"light":0
				}
			},
			"name":"Point",
			"rotation":[
				-0.7071068286895752,
				0,
				0,
				0.7071068286895752
			],
			"scale":[
				4.619826793670654,
				4.619826316833496,
				4.619826316833496
			],
			"translation":[
				-1.4193317890167236,
				1.9793713092803955,
				2.1913604736328125
			]
		},
		{
			"extensions":{
				"KHR_lights_punctual":{
					"light":1
				}
			},
			"name":"Point.001",
			"rotation":[
				-0.7071068286895752,
				0,
				0,
				0.7071068286895752
			],
			"scale":[
				4.619826793670654,
				4.619826316833496,
				4.619826316833496
			],
			"translation":[
				0.7851145267486572,
				2.4849281311035156,
				2.7223989963531494
			]
		},
		{
			"extensions":{
				"KHR_lights_punctual":{
					"light":2
				}
			},
			"name":"Point.002",
			"rotation":[
				-0.7071068286895752,
				0,
				0,
				0.7071068286895752
			],
			"scale":[
				4.619826793670654,
				4.619826316833496,
				4.619826316833496
			],
			"translation":[
				3.010262966156006,
				2.0168371200561523,
				1.645487904548645
			]
		},
		{
			"mesh":0,
			"name":"Cube.003",
			"rotation":[
				0,
				0.13104598224163055,
				0,
				0.9913762807846069
			],
			"scale":[
				1.0597217082977295,
				1.0597217082977295,
				1.0597217082977295
			],
			"translation":[
				-3.269184112548828,
				1.69736909866333,
				0.3295145630836487
			]
		},
		{
			"mesh":1,
			"name":"Suzanne",
			"rotation":[
				-0.29345259070396423,
				0.2692984938621521,
				0.07486395537853241,
				0.9141986966133118
			],
			"scale":[
				1.774034857749939,
				1.7740346193313599,
				1.774034857749939
			],
			"translation":[
				1.0023338794708252,
				2.09165096282959,
				0.9219484329223633
			]
		},
		{
			"mesh":2,
			"name":"Plane",
			"scale":[
				-102.2768325805664,
				-102.2768325805664,
				-102.2768325805664
			],
			"translation":[
				0.6353588104248047,
				0.49540698528289795,
				0.30438315868377686
			]
		},
		{
			"mesh":3,
			"name":"Icosphere",
			"scale":[
				1.307273268699646,
				1.307273268699646,
				1.307273268699646
			],
			"translation":[
				3.9820384979248047,
				0.9474501013755798,
				0.3513863980770111
			]
		},
		{
			"mesh":4,
			"name":"Cone",
			"rotation":[
				-0.2700423300266266,
				0.06330407410860062,
				0.13709916174411774,
				0.9509330987930298
			],
			"scale":[
				1.061121940612793,
				1.0611220598220825,
				1.0611218214035034
			],
			"translation":[
				0.27606499195098877,
				4.011518955230713,
				-0.45579755306243896
			]
		},
		{
			"mesh":5,
			"name":"Torus",
			"rotation":[
				-0.15736991167068481,
				-0.08217072486877441,
				-0.3256233334541321,
				0.9286830425262451
			],
			"scale":[
				1.2425694465637207,
				1.2425698041915894,
				1.2425695657730103
			],
			"translation":[
				1.8130831718444824,
				1.69736909866333,
				4.421665668487549
			]
		},
		{
			"mesh":6,
			"name":"Cylinder",
			"rotation":[
				-0.17061543464660645,
				-0.1532215029001236,
				-0.27733129262924194,
				0.9330063462257385
			],
			"scale":[
				1.1619285345077515,
				1.1619285345077515,
				1.161928653717041
			],
			"translation":[
				0.6353588104248047,
				1.69736909866333,
				-3.6522841453552246
			]
		},
		{
			"extensions":{
				"KHR_lights_punctual":{
					"light":3
				}
			},
			"name":"Point.003",
			"rotation":[
				-0.7071068286895752,
				0,
				0,
				0.7071068286895752
			],
			"scale":[
				4.619826793670654,
				4.619826316833496,
				4.619826316833496
			],
			"translation":[
				1.489573359489441,
				2.9253973960876465,
				-1.664175033569336
			]
		},
		{
			"extensions":{
				"KHR_lights_punctual":{
					"light":4
				}
			},
			"name":"Point.004",
			"rotation":[
				-0.7071068286895752,
				0,
				0,
				0.7071068286895752
			],
			"scale":[
				4.619826793670654,
				4.619826316833496,
				4.619826316833496
			],
			"translation":[
				-1.6888649463653564,
				3.2986996173858643,
				0.15470606088638306
			]
		},
		{
			"extensions":{
				"KHR_lights_punctual":{
					"light":5
				}
			},
			"name":"Point.006",
			"rotation":[
				-0.7071068286895752,
				0,
				0,
				0.7071068286895752
			],
			"scale":[
				4.619826793670654,
				4.619826316833496,
				4.619826316833496
			],
			"translation":[
				1.9008517265319824,
				3.9662790298461914,
				0.35304582118988037
			]
		},
		{
			"extensions":{
				"KHR_lights_punctual":{
					"light":6
				}
			},
			"name":"Sun",
			"rotation":[
				-0.834201991558075,
				0.11728326976299286,
				-0.11728326976299286,
				0.5259242653846741
			],
			"translation":[
				1.3905545473098755,
				9.93082332611084,
				0
			]
		},
		{
			"extensions":{
				"KHR_lights_punctual":{
					"light":7
				}
			},
			"name":"Point.007",
			"rotation":[
				-0.7071068286895752,
				0,
				0,
				0.7071068286895752
			],
			"scale":[
				4.619826793670654,
				4.619826316833496,
				4.619826316833496
			],
			"translation":[
				5.990130424499512,
				2.566612720489502,
				0.8578072786331177
			]
		}
	],
	"cameras":[
		{
			"name":"Camera",
			"perspective":{
				"aspectRatio":1.7777777777777777,
				"yfov":0.39959652046304894,
				"zfar":100,
				"znear":0.10000000149011612
			},
			"type":"perspective"
		}
	],
	"materials":[
		{
			"doubleSided":true,
			"name":"Material.002",
			"pbrMetallicRoughness":{
				"baseColorFactor":[
					0.48780500888824463,
					0.4612559378147125,
					0,
					1
				],
				"metallicFactor":0,
				"roughnessFactor":0.5
			}
		},
		{
			"doubleSided":true,
			"name":"Material.003",
			"pbrMetallicRoughness":{
				"baseColorFactor":[
					0.009986192919313908,
					0.6691605448722839,
					0.7999992966651917,
					1
				],
				"metallicFactor":0,
				"roughnessFactor":0.5
			}
		},
		{
			"doubleSided":true,
			"name":"Material.004",
			"pbrMetallicRoughness":{
				"baseColorFactor":[
					0.800000011920929,
					0.800000011920929,
					0.800000011920929,
					1
				],
				"metallicFactor":0,
				"roughnessFactor":0.5
			}
		},
		{
			"doubleSided":true,
			"name":"Material.005",
			"pbrMetallicRoughness":{
				"baseColorFactor":[
					0.7999992966651917,
					0.07771699130535126,
					0.08285439014434814,
					1
				],
				"metallicFactor":0,
				"roughnessFactor":0.5
			}
		},
		{
			"doubleSided":true,
			"name":"Material.001",
			"pbrMetallicRoughness":{
				"baseColorFactor":[
					0.7999998927116394,
					0.10149765759706497,
					0.7756885886192322,
					1
				],
				"metallicFactor":0,
				"roughnessFactor":0.5
			}
		},
		{
			"doubleSided":true,
			"name":"Material",
			"pbrMetallicRoughness":{
				"baseColorFactor":[
					1,
					0.3181777596473694,
					0.656787097454071,
					1
				],
				"metallicFactor":0,
				"roughnessFactor":0
			}
		}
	],
	"meshes":[
		{
			"name":"Cube.003",
			"primitives":[
				{
					"attributes":{
						"POSITION":0,
						"NORMAL":1,
						"TEXCOORD_0":2
					},
					"indices":3,
					"material":0
				}
			]
		},
		{
			"name":"Suzanne",
			"primitives":[
				{
					"attributes":{
						"POSITION":4,
						"NORMAL":5,
						"TEXCOORD_0":6
					},
					"indices":7,
					"material":1
				}
			]
		},
		{
			"name":"Plane",
			"primitives":[
				{
					"attributes":{
						"POSITION":8,
						"NORMAL":9,
						"TEXCOORD_0":10
					},
					"indices":11,
					"material":2
				}
			]
		},
		{
			"name":"Icosphere",
			"primitives":[
				{
					"attributes":{
						"POSITION":12,
						"NORMAL":13,
						"TEXCOORD_0":14
					},
					"indices":15,
					"material":3
				}
			]
		},
		{
			"name":"Cone",
			"primitives":[
				{
					"attributes":{
						"POSITION":16,
						"NORMAL":17,
						"TEXCOORD_0":18
					},
					"indices":19,
					"material":4
				}
			]
		},
		{
			"name":"Torus",
			"primitives":[
				{
					"attributes":{
						"POSITION":20,
						"NORMAL":21,
						"TEXCOORD_0":22
					},
					"indices":23,
					"material":2
				}
			]
		},
		{
			"name":"Cylinder",
			"primitives":[
				{
					"attributes":{
						"POSITION":24,
						"NORMAL":25,
						"TEXCOORD_0":26
					},
					"indices":27,
					"material":5
				}
			]
		}
	],
	"accessors":[
		{
			"bufferView":0,
			"componentType":5126,
			"count":24,
			"max":[
				1,
				1,
				1
			],
			"min":[
				-1,
				-1,
				-1
			],
			"type":"VEC3"
		},
		{
			"bufferView":1,
			"componentType":5126,
			"count":24,
			"type":"VEC3"
		},
		{
			"bufferView":2,
			"componentType":5126,
			"count":24,
			"type":"VEC2"
		},
		{
			"bufferView":3,
			"componentType":5123,
			"count":36,
			"type":"SCALAR"
		},
		{
			"bufferView":4,
			"componentType":5126,
			"count":2109,
			"max":[
				1.325934886932373,
				0.9392362236976624,
				0.8223199844360352
			],
			"min":[
				-1.325934886932373,
				-0.9704862236976624,
				-0.7782661318778992
			],
			"type":"VEC3"
		},
		{
			"bufferView":5,
			"componentType":5126,
			"count":2109,
			"type":"VEC3"
		},
		{
			"bufferView":6,
			"componentType":5126,
			"count":2109,
			"type":"VEC2"
		},
		{
			"bufferView":7,
			"componentType":5123,
			"count":11808,
			"type":"SCALAR"
		},
		{
			"bufferView":8,
			"componentType":5126,
			"count":4,
			"max":[
				1,
				0,
				1
			],
			"min":[
				-1,
				0,
				-1
			],
			"type":"VEC3"
		},
		{
			"bufferView":9,
			"componentType":5126,
			"count":4,
			"type":"VEC3"
		},
		{
			"bufferView":10,
			"componentType":5126,
			"count":4,
			"type":"VEC2"
		},
		{
			"bufferView":11,
			"componentType":5123,
			"count":6,
			"type":"SCALAR"
		},
		{
			"bufferView":12,
			"componentType":5126,
			"count":285,
			"max":[
				0.9231224656105042,
				0.9303051233291626,
				0.9248635768890381
			],
			"min":[
				-0.9231224656105042,
				-0.9303051233291626,
				-0.9248635768890381
			],
			"type":"VEC3"
		},
		{
			"bufferView":13,
			"componentType":5126,
			"count":285,
			"type":"VEC3"
		},
		{
			"bufferView":14,
			"componentType":5126,
			"count":285,
			"type":"VEC2"
		},
		{
			"bufferView":15,
			"componentType":5123,
			"count":1440,
			"type":"SCALAR"
		},
		{
			"bufferView":16,
			"componentType":5126,
			"count":128,
			"max":[
				1,
				1,
				1
			],
			"min":[
				-1,
				-1,
				-1
			],
			"type":"VEC3"
		},
		{
			"bufferView":17,
			"componentType":5126,
			"count":128,
			"type":"VEC3"
		},
		{
			"bufferView":18,
			"componentType":5126,
			"count":128,
			"type":"VEC2"
		},
		{
			"bufferView":19,
			"componentType":5123,
			"count":186,
			"type":"SCALAR"
		},
		{
			"bufferView":20,
			"componentType":5126,
			"count":637,
			"max":[
				1.25,
				0.25,
				1.25
			],
			"min":[
				-1.25,
				-0.25,
				-1.25
			],
			"type":"VEC3"
		},
		{
			"bufferView":21,
			"componentType":5126,
			"count":637,
			"type":"VEC3"
		},
		{
			"bufferView":22,
			"componentType":5126,
			"count":637,
			"type":"VEC2"
		},
		{
			"bufferView":23,
			"componentType":5123,
			"count":3456,
			"type":"SCALAR"
		},
		{
			"bufferView":24,
			"componentType":5126,
			"count":130,
			"max":[
				1,
				1,
				1
			],
			"min":[
				-1,
				-1,
				-1
			],
			"type":"VEC3"
		},
		{
			"bufferView":25,
			"componentType":5126,
			"count":130,
			"type":"VEC3"
		},
		{
			"bufferView":26,
			"componentType":5126,
			"count":130,
			"type":"VEC2"
		},
		{
			"bufferView":27,
			"componentType":5123,
			"count":372,
			"type":"SCALAR"
		}
	],
	"bufferViews":[
		{
			"buffer":0,
			"byteLength":288,
			"byteOffset":0,
			"target":34962
		},
		{
			"buffer":0,
			"byteLength":288,
			"byteOffset":288,
			"target":34962
		},
		{
			"buffer":0,
			"byteLength":192,
			"byteOffset":576,
			"target":34962
		},
		{
			"buffer":0,
			"byteLength":72,
			"byteOffset":768,
			"target":34963
		},
		{
			"buffer":0,
			"byteLength":25308,
			"byteOffset":840,
			"target":34962
		},
		{
			"buffer":0,
			"byteLength":25308,
			"byteOffset":26148,
			"target":34962
		},
		{
			"buffer":0,
			"byteLength":16872,
			"byteOffset":51456,
			"target":34962
		},
		{
			"buffer":0,
			"byteLength":23616,
			"byteOffset":68328,
			"target":34963
		},
		{
			"buffer":0,
			"byteLength":48,
			"byteOffset":91944,
			"target":34962
		},
		{
			"buffer":0,
			"byteLength":48,
			"byteOffset":91992,
			"target":34962
		},
		{
			"buffer":0,
			"byteLength":32,
			"byteOffset":92040,
			"target":34962
		},
		{
			"buffer":0,
			"byteLength":12,
			"byteOffset":92072,
			"target":34963
		},
		{
			"buffer":0,
			"byteLength":3420,
			"byteOffset":92084,
			"target":34962
		},
		{
			"buffer":0,
			"byteLength":3420,
			"byteOffset":95504,
			"target":34962
		},
		{
			"buffer":0,
			"byteLength":2280,
			"byteOffset":98924,
			"target":34962
		},
		{
			"buffer":0,
			"byteLength":2880,
			"byteOffset":101204,
			"target":34963
		},
		{
			"buffer":0,
			"byteLength":1536,
			"byteOffset":104084,
			"target":34962
		},
		{
			"buffer":0,
			"byteLength":1536,
			"byteOffset":105620,
			"target":34962
		},
		{
			"buffer":0,
			"byteLength":1024,
			"byteOffset":107156,
			"target":34962
		},
		{
			"buffer":0,
			"byteLength":372,
			"byteOffset":108180,
			"target":34963
		},
		{
			"buffer":0,
			"byteLength":7644,
			"byteOffset":108552,
			"target":34962
		},
		{
			"buffer":0,
			"byteLength":7644,
			"byteOffset":116196,
			"target":34962
		},
		{
			"buffer":0,
			"byteLength":5096,
			"byteOffset":123840,
			"target":34962
		},
		{
			"buffer":0,
			"byteLength":6912,
			"byteOffset":128936,
			"target":34963
		},
		{
			"buffer":0,
			"byteLength":1560,
			"byteOffset":135848,
			"target":34962
		},
		{
			"buffer":0,
			"byteLength":1560,
			"byteOffset":137408,
			"target":34962
		},
		{
			"buffer":0,
			"byteLength":1040,
			"byteOffset":138968,
			"target":34962
		},
		{
			"buffer":0,
			"byteLength":744,
			"byteOffset":140008,
			"target":34963
		}
	],
	"buffers":[
		{
			"byteLength":140752,
			"uri":"light2.bin"
		}
	]
}
