{
	"asset":{
		"generator":"Khronos glTF Blender I/O v4.0.44",
		"version":"2.0"
	},
	"extensionsUsed":[
		"KHR_lights_punctual"
	],
	"extensionsRequired":[
		"KHR_lights_punctual"
	],
	"extensions":{
		"KHR_lights_punctual":{
			"lights":[
				{
					"color":[
						1,
						0,
						0.0035019032657146454
					],
					"intensity":54351.41306588226,
					"type":"point",
					"name":"Point.004"
				},
				{
					"color":[
						0,
						1,
						0.002438497496768832
					],
					"intensity":54351.41306588226,
					"type":"point",
					"name":"Point.003"
				},
				{
					"color":[
						0,
						6.438654963858426e-05,
						1
					],
					"intensity":54351.41306588226,
					"type":"point",
					"name":"Point.006"
				},
				{
					"color":[
						1,
						1,
						1
					],
					"intensity":1366,
					"type":"directional",
					"name":"Sun"
				}
			]
		}
	},
	"scene":0,
	"scenes":[
		{
			"name":"Scene",
			"nodes":[
				0,
				1,
				2,
				6,
				7,
				8,
				9
			]
		}
	],
	"nodes":[
		{
			"camera":0,
			"name":"Camera",
			"rotation":[
				-0.20997299253940582,
				0.3857799470424652,
				0.09062844514846802,
				0.8937962055206299
			],
			"translation":[
				7.358891487121582,
				4.958309173583984,
				6.925790786743164
			]
		},
		{
			"mesh":0,
			"name":"Cube"
		},
		{
			"mesh":1,
			"name":"Plane"
		},
		{
			"mesh":2,
			"name":"Cone",
			"scale":[
				3.4459385871887207,
				3.4459385871887207,
				3.4459385871887207
			],
			"translation":[
				23.810731887817383,
				91.69652557373047,
				12.180753707885742
			]
		},
		{
			"mesh":3,
			"name":"Cone.001",
			"scale":[
				4.5176801681518555,
				4.5176801681518555,
				4.5176801681518555
			],
			"translation":[
				23.810731887817383,
				91.69652557373047,
				-17.072582244873047
			]
		},
		{
			"extensions":{
				"KHR_lights_punctual":{
					"light":0
				}
			},
			"name":"Point.003",
			"rotation":[
				-0.7071068286895752,
				0,
				0,
				0.7071068286895752
			],
			"translation":[
				13.22279167175293,
				90.09548950195312,
				12.125736236572266
			]
		},
		{
			"children":[
				3,
				4,
				5
			],
			"mesh":4,
			"name":"building"
		},
		{
			"extensions":{
				"KHR_lights_punctual":{
					"light":1
				}
			},
			"name":"Point.001",
			"rotation":[
				-0.7071068286895752,
				0,
				0,
				0.7071068286895752
			],
			"translation":[
				39.274192810058594,
				16.89063262939453,
				-19.689672470092773
			]
		},
		{
			"extensions":{
				"KHR_lights_punctual":{
					"light":2
				}
			},
			"name":"Point.002",
			"rotation":[
				-0.7071068286895752,
				0,
				0,
				0.7071068286895752
			],
			"translation":[
				-57.55860137939453,
				4.353381156921387,
				36.36256408691406
			]
		},
		{
			"extensions":{
				"KHR_lights_punctual":{
					"light":3
				}
			},
			"name":"Sun",
			"rotation":[
				-0.7756119966506958,
				0.11455313861370087,
				0.0168197862803936,
				0.6205004453659058
			],
			"translation":[
				200,
				400,
				-200
			]
		}
	],
	"cameras":[
		{
			"name":"Camera",
			"perspective":{
				"aspectRatio":1.7777777777777777,
				"yfov":0.39959652046304894,
				"zfar":100,
				"znear":0.10000000149011612
			},
			"type":"perspective"
		}
	],
	"materials":[
		{
			"doubleSided":true,
			"name":"Material",
			"pbrMetallicRoughness":{
				"baseColorFactor":[
					0.800000011920929,
					0.800000011920929,
					0.800000011920929,
					1
				],
				"metallicFactor":0,
				"roughnessFactor":0.5
			}
		}
	],
	"meshes":[
		{
			"name":"Cube.001",
			"primitives":[
				{
					"attributes":{
						"POSITION":0,
						"NORMAL":1,
						"TEXCOORD_0":2
					},
					"indices":3
				}
			]
		},
		{
			"name":"Plane",
			"primitives":[
				{
					"attributes":{
						"POSITION":4,
						"NORMAL":5,
						"TEXCOORD_0":6
					},
					"indices":7,
					"material":0
				}
			]
		},
		{
			"name":"Cone",
			"primitives":[
				{
					"attributes":{
						"POSITION":8,
						"NORMAL":9,
						"TEXCOORD_0":10
					},
					"indices":11
				}
			]
		},
		{
			"name":"Cone.001",
			"primitives":[
				{
					"attributes":{
						"POSITION":12,
						"NORMAL":13,
						"TEXCOORD_0":14
					},
					"indices":11
				}
			]
		},
		{
			"name":"Cube",
			"primitives":[
				{
					"attributes":{
						"POSITION":15,
						"NORMAL":16,
						"TEXCOORD_0":17
					},
					"indices":18,
					"material":0
				}
			]
		}
	],
	"accessors":[
		{
			"bufferView":0,
			"componentType":5126,
			"count":24,
			"max":[
				-44.324588775634766,
				4.073124408721924,
				-54.45537185668945
			],
			"min":[
				-44.554588317871094,
				2.2731242179870605,
				-54.91537094116211
			],
			"type":"VEC3"
		},
		{
			"bufferView":1,
			"componentType":5126,
			"count":24,
			"type":"VEC3"
		},
		{
			"bufferView":2,
			"componentType":5126,
			"count":24,
			"type":"VEC2"
		},
		{
			"bufferView":3,
			"componentType":5123,
			"count":36,
			"type":"SCALAR"
		},
		{
			"bufferView":4,
			"componentType":5126,
			"count":10404,
			"max":[
				500,
				90.30733489990234,
				500
			],
			"min":[
				-500,
				-18.7296142578125,
				-500
			],
			"type":"VEC3"
		},
		{
			"bufferView":5,
			"componentType":5126,
			"count":10404,
			"type":"VEC3"
		},
		{
			"bufferView":6,
			"componentType":5126,
			"count":10404,
			"type":"VEC2"
		},
		{
			"bufferView":7,
			"componentType":5123,
			"count":61206,
			"type":"SCALAR"
		},
		{
			"bufferView":8,
			"componentType":5126,
			"count":128,
			"max":[
				1,
				1,
				1
			],
			"min":[
				-1,
				-1,
				-1
			],
			"type":"VEC3"
		},
		{
			"bufferView":9,
			"componentType":5126,
			"count":128,
			"type":"VEC3"
		},
		{
			"bufferView":10,
			"componentType":5126,
			"count":128,
			"type":"VEC2"
		},
		{
			"bufferView":11,
			"componentType":5123,
			"count":186,
			"type":"SCALAR"
		},
		{
			"bufferView":12,
			"componentType":5126,
			"count":128,
			"max":[
				1,
				1,
				1
			],
			"min":[
				-1,
				-1,
				-1
			],
			"type":"VEC3"
		},
		{
			"bufferView":13,
			"componentType":5126,
			"count":128,
			"type":"VEC3"
		},
		{
			"bufferView":14,
			"componentType":5126,
			"count":128,
			"type":"VEC2"
		},
		{
			"bufferView":15,
			"componentType":5126,
			"count":329,
			"max":[
				32.30734634399414,
				86.74917602539062,
				32.30734634399414
			],
			"min":[
				-32.30734634399414,
				5.099460601806641,
				-32.30734634399414
			],
			"type":"VEC3"
		},
		{
			"bufferView":16,
			"componentType":5126,
			"count":329,
			"type":"VEC3"
		},
		{
			"bufferView":17,
			"componentType":5126,
			"count":329,
			"type":"VEC2"
		},
		{
			"bufferView":18,
			"componentType":5123,
			"count":852,
			"type":"SCALAR"
		}
	],
	"bufferViews":[
		{
			"buffer":0,
			"byteLength":288,
			"byteOffset":0,
			"target":34962
		},
		{
			"buffer":0,
			"byteLength":288,
			"byteOffset":288,
			"target":34962
		},
		{
			"buffer":0,
			"byteLength":192,
			"byteOffset":576,
			"target":34962
		},
		{
			"buffer":0,
			"byteLength":72,
			"byteOffset":768,
			"target":34963
		},
		{
			"buffer":0,
			"byteLength":124848,
			"byteOffset":840,
			"target":34962
		},
		{
			"buffer":0,
			"byteLength":124848,
			"byteOffset":125688,
			"target":34962
		},
		{
			"buffer":0,
			"byteLength":83232,
			"byteOffset":250536,
			"target":34962
		},
		{
			"buffer":0,
			"byteLength":122412,
			"byteOffset":333768,
			"target":34963
		},
		{
			"buffer":0,
			"byteLength":1536,
			"byteOffset":456180,
			"target":34962
		},
		{
			"buffer":0,
			"byteLength":1536,
			"byteOffset":457716,
			"target":34962
		},
		{
			"buffer":0,
			"byteLength":1024,
			"byteOffset":459252,
			"target":34962
		},
		{
			"buffer":0,
			"byteLength":372,
			"byteOffset":460276,
			"target":34963
		},
		{
			"buffer":0,
			"byteLength":1536,
			"byteOffset":460648,
			"target":34962
		},
		{
			"buffer":0,
			"byteLength":1536,
			"byteOffset":462184,
			"target":34962
		},
		{
			"buffer":0,
			"byteLength":1024,
			"byteOffset":463720,
			"target":34962
		},
		{
			"buffer":0,
			"byteLength":3948,
			"byteOffset":464744,
			"target":34962
		},
		{
			"buffer":0,
			"byteLength":3948,
			"byteOffset":468692,
			"target":34962
		},
		{
			"buffer":0,
			"byteLength":2632,
			"byteOffset":472640,
			"target":34962
		},
		{
			"buffer":0,
			"byteLength":1704,
			"byteOffset":475272,
			"target":34963
		}
	],
	"buffers":[
		{
			"byteLength":476976,
			"uri":"planet-scene.bin"
		}
	]
}
