{
	"asset":{
		"generator":"Khronos glTF Blender I/O v4.0.44",
		"version":"2.0"
	},
	"extensionsUsed":[
		"KHR_lights_punctual"
	],
	"extensionsRequired":[
		"KHR_lights_punctual"
	],
	"extensions":{
		"KHR_lights_punctual":{
			"lights":[
				{
					"color":[
						1,
						1,
						1
					],
					"intensity":683,
					"type":"directional",
					"name":"Light"
				},
				{
					"color":[
						1,
						0.011645207181572914,
						0
					],
					"intensity":5435.141306588225,
					"type":"point",
					"name":"Point.001"
				},
				{
					"color":[
						0.3443964719772339,
						0,
						1
					],
					"intensity":5435.141306588225,
					"type":"point",
					"name":"Point.002"
				},
				{
					"color":[
						0,
						1,
						0.8562158942222595
					],
					"intensity":5435.141306588225,
					"type":"point",
					"name":"Point.004"
				}
			]
		}
	},
	"scene":0,
	"scenes":[
		{
			"name":"Scene",
			"nodes":[
				0,
				1,
				2,
				3,
				4,
				5,
				6,
				7
			]
		}
	],
	"nodes":[
		{
			"extensions":{
				"KHR_lights_punctual":{
					"light":0
				}
			},
			"name":"Light",
			"rotation":[
				-0.34300366044044495,
				0.46262332797050476,
				0.5103394389152527,
				0.6386563181877136
			],
			"translation":[
				95.59513092041016,
				186.71463012695312,
				126.93673706054688
			]
		},
		{
			"camera":0,
			"name":"Camera",
			"rotation":[
				-0.20997299253940582,
				0.3857799470424652,
				0.09062844514846802,
				0.8937962055206299
			],
			"translation":[
				7.358891487121582,
				4.958309173583984,
				6.925790786743164
			]
		},
		{
			"mesh":0,
			"name":"Cube"
		},
		{
			"mesh":1,
			"name":"Plane"
		},
		{
			"mesh":2,
			"name":"building"
		},
		{
			"extensions":{
				"KHR_lights_punctual":{
					"light":1
				}
			},
			"name":"Point.001",
			"rotation":[
				-0.7071068286895752,
				0,
				0,
				0.7071068286895752
			],
			"translation":[
				38.974334716796875,
				24.582677841186523,
				-7.932159423828125
			]
		},
		{
			"extensions":{
				"KHR_lights_punctual":{
					"light":2
				}
			},
			"name":"Point.002",
			"rotation":[
				-0.7071068286895752,
				0,
				0,
				0.7071068286895752
			],
			"translation":[
				35.938880920410156,
				54.628570556640625,
				-24.517345428466797
			]
		},
		{
			"extensions":{
				"KHR_lights_punctual":{
					"light":3
				}
			},
			"name":"Point.003",
			"rotation":[
				-0.7071068286895752,
				0,
				0,
				0.7071068286895752
			],
			"translation":[
				8.471220016479492,
				55.226036071777344,
				34.907684326171875
			]
		}
	],
	"cameras":[
		{
			"name":"Camera",
			"perspective":{
				"aspectRatio":1.7777777777777777,
				"yfov":0.39959652046304894,
				"zfar":100,
				"znear":0.10000000149011612
			},
			"type":"perspective"
		}
	],
	"materials":[
		{
			"doubleSided":true,
			"name":"Material",
			"pbrMetallicRoughness":{
				"baseColorFactor":[
					0.800000011920929,
					0.800000011920929,
					0.800000011920929,
					1
				],
				"metallicFactor":0,
				"roughnessFactor":0.5
			}
		}
	],
	"meshes":[
		{
			"name":"Cube.001",
			"primitives":[
				{
					"attributes":{
						"POSITION":0,
						"NORMAL":1,
						"TEXCOORD_0":2
					},
					"indices":3
				}
			]
		},
		{
			"name":"Plane",
			"primitives":[
				{
					"attributes":{
						"POSITION":4,
						"NORMAL":5,
						"TEXCOORD_0":6
					},
					"indices":7,
					"material":0
				}
			]
		},
		{
			"name":"Cube",
			"primitives":[
				{
					"attributes":{
						"POSITION":8,
						"NORMAL":9,
						"TEXCOORD_0":10
					},
					"indices":11,
					"material":0
				}
			]
		}
	],
	"accessors":[
		{
			"bufferView":0,
			"componentType":5126,
			"count":24,
			"max":[
				-44.324588775634766,
				4.073124408721924,
				-54.45537185668945
			],
			"min":[
				-44.554588317871094,
				2.2731242179870605,
				-54.91537094116211
			],
			"type":"VEC3"
		},
		{
			"bufferView":1,
			"componentType":5126,
			"count":24,
			"type":"VEC3"
		},
		{
			"bufferView":2,
			"componentType":5126,
			"count":24,
			"type":"VEC2"
		},
		{
			"bufferView":3,
			"componentType":5123,
			"count":36,
			"type":"SCALAR"
		},
		{
			"bufferView":4,
			"componentType":5126,
			"count":10404,
			"max":[
				500,
				90.30733489990234,
				500
			],
			"min":[
				-500,
				-18.7296142578125,
				-500
			],
			"type":"VEC3"
		},
		{
			"bufferView":5,
			"componentType":5126,
			"count":10404,
			"type":"VEC3"
		},
		{
			"bufferView":6,
			"componentType":5126,
			"count":10404,
			"type":"VEC2"
		},
		{
			"bufferView":7,
			"componentType":5123,
			"count":61206,
			"type":"SCALAR"
		},
		{
			"bufferView":8,
			"componentType":5126,
			"count":329,
			"max":[
				32.30734634399414,
				86.74917602539062,
				32.30734634399414
			],
			"min":[
				-32.30734634399414,
				5.099460601806641,
				-32.30734634399414
			],
			"type":"VEC3"
		},
		{
			"bufferView":9,
			"componentType":5126,
			"count":329,
			"type":"VEC3"
		},
		{
			"bufferView":10,
			"componentType":5126,
			"count":329,
			"type":"VEC2"
		},
		{
			"bufferView":11,
			"componentType":5123,
			"count":852,
			"type":"SCALAR"
		}
	],
	"bufferViews":[
		{
			"buffer":0,
			"byteLength":288,
			"byteOffset":0,
			"target":34962
		},
		{
			"buffer":0,
			"byteLength":288,
			"byteOffset":288,
			"target":34962
		},
		{
			"buffer":0,
			"byteLength":192,
			"byteOffset":576,
			"target":34962
		},
		{
			"buffer":0,
			"byteLength":72,
			"byteOffset":768,
			"target":34963
		},
		{
			"buffer":0,
			"byteLength":124848,
			"byteOffset":840,
			"target":34962
		},
		{
			"buffer":0,
			"byteLength":124848,
			"byteOffset":125688,
			"target":34962
		},
		{
			"buffer":0,
			"byteLength":83232,
			"byteOffset":250536,
			"target":34962
		},
		{
			"buffer":0,
			"byteLength":122412,
			"byteOffset":333768,
			"target":34963
		},
		{
			"buffer":0,
			"byteLength":3948,
			"byteOffset":456180,
			"target":34962
		},
		{
			"buffer":0,
			"byteLength":3948,
			"byteOffset":460128,
			"target":34962
		},
		{
			"buffer":0,
			"byteLength":2632,
			"byteOffset":464076,
			"target":34962
		},
		{
			"buffer":0,
			"byteLength":1704,
			"byteOffset":466708,
			"target":34963
		}
	],
	"buffers":[
		{
			"byteLength":468412,
			"uri":"planet-scene.bin"
		}
	]
}
